<?xml version="1.0" standalone="no"?>
<!DOCTYPE svg PUBLIC "-//W3C//DTD SVG 20010904//EN"
 "http://www.w3.org/TR/2001/REC-SVG-20010904/DTD/svg10.dtd">
<svg version="1.0" xmlns="http://www.w3.org/2000/svg"
 width="180.000000pt" height="180.000000pt" viewBox="0 0 180.000000 180.000000"
 preserveAspectRatio="xMidYMid meet">
<metadata>
Created by potrace 1.11, written by Peter Selinger 2001-2013
</metadata>
<g transform="translate(0.000000,180.000000) scale(0.100000,-0.100000)"
fill="#000000" stroke="none">
<path d="M757 1790 c-354 -64 -634 -320 -729 -665 -21 -77 -22 -100 -26 -600
l-3 -520 130 129 c146 146 121 139 221 58 169 -137 426 -210 647 -183 161 20
311 78 438 171 75 55 187 179 234 257 304 511 47 1160 -526 1329 -69 20 -116
27 -213 29 -69 2 -147 0 -173 -5z m321 -355 c87 -21 171 -66 237 -127 l56 -53
-70 -69 -69 -69 -43 37 c-199 170 -491 122 -600 -100 -28 -56 -32 -75 -32
-147 -1 -72 3 -91 30 -147 38 -82 100 -144 182 -183 54 -25 76 -30 145 -31 44
-1 103 5 129 13 52 15 130 78 160 130 l18 31 -150 0 -151 0 0 95 0 95 263 -2
262 -3 -2 -69 c-8 -228 -185 -435 -408 -477 -131 -25 -296 2 -415 67 -128 69
-239 241 -262 402 -37 270 129 529 387 603 76 22 247 24 333 4z"/>
</g>
</svg>
