<svg xmlns="http://www.w3.org/2000/svg" width="130" height="130" viewBox="0 0 130 130"><defs><style>.a,.d{fill:none;}.a{stroke:#f83b6a;}.b{fill:#f83b6a;}.c{stroke:none;}</style></defs><g transform="translate(-745 -1200)"><g class="a" transform="translate(745 1200)"><rect class="c" width="130" height="130" rx="65"/><rect class="d" x="0.5" y="0.5" width="129" height="129" rx="64.5"/></g><g transform="translate(775 1174.734)"><g transform="translate(0 64.266)"><g transform="translate(0 0)"><path class="b" d="M66.79,80.334H59.9L56.423,66.683a3.214,3.214,0,0,0-3.9-2.317l-7.936,2.024a1,1,0,1,0,.494,1.939L53.014,66.3a1.211,1.211,0,0,1,1.471.873l.386,1.512L2.424,82.063l-.386-1.512a1.21,1.21,0,0,1,.873-1.471l36.074-9.2a1,1,0,0,0-.494-1.939l-36.075,9.2A3.214,3.214,0,0,0,.1,81.045l7.4,29.011a3.208,3.208,0,0,0,3.9,2.317l.474-.121v1.231a3.214,3.214,0,0,0,3.21,3.21h51.7a3.214,3.214,0,0,0,3.21-3.21V83.544A3.214,3.214,0,0,0,66.79,80.334ZM11.875,110.188l-.968.247a1.211,1.211,0,0,1-1.471-.873L4.908,91.8l6.967-1.777v20.161Zm0-26.644v4.419l-7.461,1.9L2.919,84l9.664-2.464A3.2,3.2,0,0,0,11.875,83.544Zm45.964-3.21H49.888l7.466-1.9Zm-2.475-9.706,1.5,5.864L41.792,80.334H17.3ZM66.79,114.693h-51.7a1.211,1.211,0,0,1-1.21-1.21V83.544a1.211,1.211,0,0,1,1.21-1.21h51.7A1.211,1.211,0,0,1,68,83.544v29.939h0A1.211,1.211,0,0,1,66.79,114.693Z" transform="translate(0 -64.266)"/></g></g><g transform="translate(17.038 104.957)"><path class="b" d="M147.413,361.895H125.619a1,1,0,0,0,0,2h21.794a1,1,0,0,0,0-2Z" transform="translate(-124.619 -361.895)"/></g><g transform="translate(42.212 87.369)"><path class="b" d="M323.035,233.249a6.547,6.547,0,0,0-3.85,1.248,6.585,6.585,0,1,0,0,10.675,6.583,6.583,0,1,0,3.85-11.922Zm-6.577,6.9c0,.026,0,.051,0,.077q.007.126.019.251c0,.019,0,.039.006.058a6.491,6.491,0,0,0,1.245,3.207,4.584,4.584,0,1,1,0-7.81,6.492,6.492,0,0,0-1.245,3.207c0,.019,0,.039-.006.058q-.012.125-.019.251c0,.026,0,.051,0,.077,0,.1-.008.208-.008.312S316.454,240.042,316.459,240.146Zm6.577,4.272a4.569,4.569,0,0,1-3.215-1.321l-.051-.051c-.038-.039-.076-.078-.113-.118l-.03-.033c-.043-.048-.086-.1-.127-.147h0a4.576,4.576,0,0,1,0-5.828h0c.041-.05.084-.1.127-.147l.03-.033c.037-.04.075-.08.113-.119l.05-.05a4.583,4.583,0,1,1,3.215,7.848Z" transform="translate(-308.747 -233.249)"/></g><g transform="translate(17.038 88.019)"><g transform="translate(0 0)"><path class="b" d="M132.748,238.006h-4.387a3.745,3.745,0,0,0-3.741,3.741v4.387a3.745,3.745,0,0,0,3.741,3.741h4.387a3.745,3.745,0,0,0,3.741-3.741v-4.387A3.745,3.745,0,0,0,132.748,238.006Zm1.741,6.472h-2.134a1,1,0,1,0,0,2h2.1a1.744,1.744,0,0,1-1.706,1.4h-4.387a1.743,1.743,0,0,1-1.706-1.4h2.1a1,1,0,1,0,0-2H126.62v-.867h2.134a1,1,0,0,0,0-2h-2.127a1.742,1.742,0,0,1,1.734-1.6h4.387a1.742,1.742,0,0,1,1.734,1.6h-2.127a1,1,0,1,0,0,2h2.134Z" transform="translate(-124.62 -238.006)"/></g></g><g transform="translate(27.49 109.358)"><g transform="translate(0 0)"><path class="b" d="M236.9,394.085H202.071a1,1,0,0,0,0,2H236.9a1,1,0,0,0,0-2Z" transform="translate(-201.071 -394.085)"/></g></g><g transform="translate(17.038 109.358)"><g transform="translate(0 0)"><path class="b" d="M129.7,394.085H125.62a1,1,0,0,0,0,2H129.7a1,1,0,0,0,0-2Z" transform="translate(-124.62 -394.085)"/></g></g></g></g></svg>