<svg xmlns="http://www.w3.org/2000/svg" width="130" height="130" viewBox="0 0 130 130"><defs><style>.a,.d{fill:none;}.a{stroke:#f83b6a;}.b{fill:#f83b6a;}.c{stroke:none;}</style></defs><g transform="translate(-445 -1200)"><g class="a" transform="translate(445 1200)"><rect class="c" width="130" height="130" rx="65"/><rect class="d" x="0.5" y="0.5" width="129" height="129" rx="64.5"/></g><g transform="translate(402.491 1234)"><g transform="translate(91.712 6.836)"><path class="b" d="M155.257,63.169l-.677-8.127a1.025,1.025,0,0,0-1.022-.94h-1.025V53.076a3.076,3.076,0,0,0-6.152,0V54.1h-1.025a1.025,1.025,0,0,0-1.02.923l-.82,8.2a1.025,1.025,0,0,0,1.02,1.127h9.709a1.025,1.025,0,0,0,1.025-1.025A1.047,1.047,0,0,0,155.257,63.169Zm-6.826-10.093a1.025,1.025,0,0,1,2.051,0V54.1h-2.051ZM145.668,62.3l.615-6.152h6.331l.513,6.152Z" transform="translate(-143.51 -50)"/></g><g transform="translate(83.509)"><path class="b" d="M130.669,9.126c0-.025-.007-.049-.011-.074,0-.009,0-.017,0-.026-.006-.029-.013-.057-.022-.086l0-.011c-.009-.029-.019-.057-.03-.084l0-.01c-.011-.026-.023-.052-.036-.077l-.006-.013c-.013-.023-.027-.046-.041-.068l-.011-.018c-.014-.021-.03-.042-.046-.062l-.014-.019c-.021-.026-.044-.051-.068-.075l-8.2-8.2q-.035-.035-.075-.068l-.021-.015c-.02-.015-.039-.03-.06-.044L122,.161c-.022-.014-.044-.027-.066-.04l-.015-.007c-.025-.013-.05-.025-.075-.036l-.011,0c-.027-.011-.055-.021-.083-.03l-.012,0c-.028-.008-.056-.016-.085-.021l-.026,0c-.024,0-.049-.008-.073-.011a.982.982,0,0,0-.1-.005H84.534a1.025,1.025,0,0,0-1.025,1.025v62a1.025,1.025,0,0,0,1.025,1.025h23.242a1.025,1.025,0,1,0,0-2.051H85.56V2.051h34.861V9.228a1.025,1.025,0,0,0,1.025,1.025h7.177V62h-5.808a1.025,1.025,0,0,0,0,2.051h6.834a1.025,1.025,0,0,0,1.025-1.025V9.228A1.016,1.016,0,0,0,130.669,9.126Zm-8.2-.923V3.5l4.7,4.7Z" transform="translate(-83.509)"/></g><g transform="translate(91.712 29.188)"><path class="b" d="M173.242,213.493H144.532a1.025,1.025,0,0,0,0,2.051h28.709a1.025,1.025,0,1,0,0-2.051Z" transform="translate(-143.507 -213.493)"/></g><g transform="translate(91.712 34.658)"><path class="b" d="M173.242,253.5H144.532a1.025,1.025,0,0,0,0,2.051h28.709a1.025,1.025,0,1,0,0-2.051Z" transform="translate(-143.507 -253.502)"/></g><g transform="translate(91.712 40.127)"><path class="b" d="M173.242,293.5H144.532a1.025,1.025,0,0,0,0,2.051h28.709a1.025,1.025,0,1,0,0-2.051Z" transform="translate(-143.507 -293.501)"/></g><g transform="translate(91.712 45.596)"><path class="b" d="M156.836,333.5h-12.3a1.025,1.025,0,0,0,0,2.051h12.3a1.025,1.025,0,0,0,0-2.051Z" transform="translate(-143.507 -333.501)"/></g><g transform="translate(108.118 48.33)"><path class="b" d="M277.862,360.68a7.178,7.178,0,1,0-11.621,5.631v7.836c0,.011,0,.021,0,.032s0,.042,0,.063,0,.029.006.043.005.037.009.056.007.031.011.046.008.034.013.051.01.032.016.048.011.031.017.047.014.032.022.048.013.029.021.043.019.033.028.049l.023.038c.011.017.024.034.036.05l.019.027,0,0a1.006,1.006,0,0,0,.073.081l.023.021c.019.018.038.035.058.051l.037.028.051.036.04.024.056.03.039.019.064.026.035.013c.024.008.049.015.074.021l.03.008c.028.006.056.01.084.014l.024,0c.034,0,.068.005.1.006h.011a1.042,1.042,0,0,0,.147-.012l.031,0a1,1,0,0,0,.142-.036l.025-.009a1.024,1.024,0,0,0,.142-.063l0,0a1.006,1.006,0,0,0,.135-.091l.009-.006,2.777-2.222,2.777,2.222.009.006a1.037,1.037,0,0,0,.136.091l0,0a1.011,1.011,0,0,0,.143.063l.025.009a1.025,1.025,0,0,0,.142.036l.031,0a1.019,1.019,0,0,0,.147.012h.011c.034,0,.068,0,.1-.006l.023,0c.029,0,.057-.008.085-.014l.029-.008c.025-.006.05-.013.075-.021l.035-.013.065-.026.039-.019.056-.03.04-.024.051-.036.037-.028c.02-.016.039-.034.058-.051l.023-.021a1.015,1.015,0,0,0,.073-.082l0,0c.007-.009.013-.018.019-.027s.025-.033.036-.05l.023-.037c.01-.016.02-.032.028-.049s.014-.028.02-.042.015-.032.022-.048.012-.031.017-.047.011-.031.016-.048.009-.034.013-.051.008-.031.011-.046.006-.037.009-.056,0-.029.006-.043,0-.042,0-.063,0-.021,0-.032v-7.835A7.168,7.168,0,0,0,277.862,360.68Zm-6.522,9.943h0l-.014-.012-.023-.017c-.018-.014-.036-.027-.055-.04l-.034-.021c-.017-.01-.035-.021-.052-.03l-.043-.021-.047-.021-.05-.018-.042-.014-.054-.014-.042-.01-.053-.008-.045-.006-.049,0-.051,0h-.043l-.057,0-.038,0-.06.01-.036.008-.06.016-.037.013-.055.02-.043.019-.046.022-.051.029-.035.021c-.019.012-.037.026-.055.04l-.023.016-.014.011h0l-1.737,1.39v-4.567a7.16,7.16,0,0,0,4.785,0v4.566Zm-.656-4.816a5.127,5.127,0,1,1,5.127-5.127A5.133,5.133,0,0,1,270.685,365.807Z" transform="translate(-263.507 -353.502)"/></g><g transform="translate(112.22 52.432)"><path class="b" d="M296.584,383.5a3.076,3.076,0,1,0,3.076,3.076A3.08,3.08,0,0,0,296.584,383.5Zm0,4.1a1.025,1.025,0,1,1,1.025-1.025A1.026,1.026,0,0,1,296.584,387.6Z" transform="translate(-293.508 -383.501)"/></g></g></g></svg>