<svg xmlns="http://www.w3.org/2000/svg" width="130" height="130" viewBox="0 0 130 130"><defs><style>.a,.d{fill:none;}.a{stroke:#f83b6a;}.b{fill:#f83b6a;}.c{stroke:none;}</style></defs><g transform="translate(-1045 -1200)"><g class="a" transform="translate(1045 1200)"><rect class="c" width="130" height="130" rx="65"/><rect class="d" x="0.5" y="0.5" width="129" height="129" rx="64.5"/></g><g transform="translate(1075 1229.999)"><g transform="translate(5.055 50.058)"><path class="b" d="M42.209,366.432a1.025,1.025,0,0,0-1.45,0l-3.486,3.486a1.025,1.025,0,0,0,1.45,1.45l3.486-3.486A1.025,1.025,0,0,0,42.209,366.432Z" transform="translate(-36.972 -366.131)"/></g><g transform="translate(8.446 53.45)"><path class="b" d="M67.017,391.24a1.025,1.025,0,0,0-1.45,0l-3.486,3.486a1.025,1.025,0,0,0,1.45,1.45l3.486-3.487A1.025,1.025,0,0,0,67.017,391.24Z" transform="translate(-61.78 -390.939)"/></g><g transform="translate(15.23 60.233)"><path class="b" d="M116.632,440.855a1.025,1.025,0,0,0-1.45,0l-3.486,3.486a1.025,1.025,0,0,0,1.45,1.45l3.486-3.486A1.025,1.025,0,0,0,116.632,440.855Z" transform="translate(-111.395 -440.554)"/></g><g transform="translate(11.838 56.841)"><path class="b" d="M91.824,416.048a1.025,1.025,0,0,0-1.45,0l-3.486,3.486a1.025,1.025,0,0,0,1.45,1.45l3.486-3.486A1.025,1.025,0,0,0,91.824,416.048Z" transform="translate(-86.587 -415.747)"/></g><g transform="translate(0 0.001)"><g transform="translate(0 0)"><path class="b" d="M67.445.083,45.986,6.356a1.024,1.024,0,0,0-.437.259L31.208,20.956,24.8,21.5A38.774,38.774,0,0,0,.666,32.7a2.263,2.263,0,0,0,1.4,3.854l12.452,1.088-1.29,1.29a2.048,2.048,0,0,0,0,2.9l1.245,1.245L11.951,45.6a2.54,2.54,0,0,0,0,3.588l8.861,8.861a2.54,2.54,0,0,0,3.588,0l2.525-2.525L28.1,56.7a2.146,2.146,0,0,0,3.031,0l1.223-1.223,1.088,12.452a2.263,2.263,0,0,0,3.854,1.4A38.459,38.459,0,0,0,46.234,55.39a1.025,1.025,0,0,0-1.923-.712A36.423,36.423,0,0,1,35.85,67.885a.21.21,0,0,1-.361-.131L34.251,53.586,46.8,41.037a55.673,55.673,0,0,1-1.111,8.987,1.025,1.025,0,1,0,2,.451c.71-3.146.764-4.641,1.354-11.682L63.386,24.452a1.025,1.025,0,0,0,.259-.437l2.848-9.742h0L69.918,2.556A2,2,0,0,0,67.445.083ZM2.247,34.512a.211.211,0,0,1-.131-.361A36.722,36.722,0,0,1,24.973,23.539l3.988-.336L16.414,35.749ZM16.8,38.263l5.586,5.586-2.119,2.119c-2.213-2.213-5.09-5.087-5.587-5.584ZM16.331,49.9a2.613,2.613,0,0,0-.342.423L13.4,47.739a.493.493,0,0,1,0-.687l2.526-2.526,2.892,2.892ZM18.7,52.169a.612.612,0,0,1-.865-.865L38.271,30.865a.612.612,0,0,1,.865.865L25.428,45.439ZM22.949,56.6a.491.491,0,0,1-.687,0l-2.588-2.589a2.619,2.619,0,0,0,.423-.342l2.487-2.487,2.892,2.892Zm6.735-1.347-.007,0a.092.092,0,0,1-.123,0l-5.52-5.52,2.119-2.119L31.738,53.2ZM61.75,23.188,33.189,51.749,27.6,46.164,40.637,33.13a2.664,2.664,0,0,0-3.766-3.766L23.837,42.4l-5.586-5.586L46.813,8.251l8.907-2.6,8.634,8.634Zm3.259-11.151L57.964,4.991l9.955-2.91Z" transform="translate(0 -0.001)"/></g></g><g transform="translate(40.548 16.3)"><path class="b" d="M308.245,120.706a6.811,6.811,0,0,0-2.018-1.4,1.025,1.025,0,0,0-.844,1.869,4.784,4.784,0,1,1-3.941,0,1.025,1.025,0,0,0-.844-1.869,6.833,6.833,0,1,0,7.647,1.4Z" transform="translate(-296.579 -119.219)"/></g></g></g></svg>