<svg xmlns="http://www.w3.org/2000/svg" width="130" height="130" viewBox="0 0 130 130"><defs><style>.a,.d{fill:none;}.a{stroke:#f83b6a;}.b{fill:#f83b6a;}.c{stroke:none;}</style></defs><g transform="translate(-1345 -1200)"><g class="a" transform="translate(1345 1200)"><rect class="c" width="130" height="130" rx="65"/><rect class="d" x="0.5" y="0.5" width="129" height="129" rx="64.5"/></g><g transform="translate(1375 1229.984)"><path class="b" d="M378.048,91.473a1.222,1.222,0,1,0-.866-2.087A1.235,1.235,0,0,0,378.048,91.473Z" transform="translate(-315.401 -74.504)"/><path class="b" d="M67.11,21.077a1.223,1.223,0,1,0-2.243.973,32.59,32.59,0,1,1-7.408-10.6,1.223,1.223,0,0,0,1.688-1.769,35,35,0,0,0-48.9,50.082A35,35,0,0,0,67.11,21.077Z" transform="translate(0 0)"/><path class="b" d="M70.636,42.6A28.058,28.058,0,1,0,98.692,70.653,28.089,28.089,0,0,0,70.636,42.6Zm0,53.671A25.613,25.613,0,1,1,96.247,70.653,25.641,25.641,0,0,1,70.636,96.266Z" transform="translate(-35.639 -35.637)"/><path class="b" d="M145.655,97.463a1.223,1.223,0,0,0-1.223,1.223v16.667h-11a1.223,1.223,0,0,0,0,2.446h12.221a1.223,1.223,0,0,0,1.223-1.223V98.686A1.223,1.223,0,0,0,145.655,97.463Z" transform="translate(-110.658 -81.56)"/></g></g></svg>